<?xml version="1.0" encoding="UTF-8" standalone="no"?>
<svg version="1.1" xmlns="http://www.w3.org/2000/svg" style="export-background" width="680px" height="900px">
 <title>Total Greenhouse and CO2 emissions  2012				</title>
 <text x="174" y="30" id="heading" style="font-family:Arial; font-size:large; font-weight:bold"> <tspan>Total Greenhouse and CO2 emissions  2012				 </tspan>
</text>
<text x="30" y="50" id="lefthead" style="font-family:Arial; font-size:large; "> <tspan>Total emissions, GT				 </tspan>
</text>
<text x="450" y="50" id="righthead" style="font-family:Arial; font-size:large; "> <tspan>Per capita emissions, T/p				 </tspan>
</text>
<rect x="20" y="250" width="50" height="10" id="k1" style="fill:blue;stroke:gray;"> </rect>
<text x="80" y="262" id="key1" style="font-family:Arial; font-size:large"> <tspan>GHG				 </tspan>
</text>
<rect x="20" y="280" width="50" height="10" id="k2" style="fill:#000099;stroke:gray;"> </rect>
<text x="80" y="292" id="key2" style="font-family:Arial; font-size:large"> <tspan>CO2				 </tspan>
</text>
<line x1="30" x2="230" y1="75" y2="75" id="l1" style="fill:black;stroke:black;"> </line>
<line x1="450" x2="650" y1="75" y2="75" id="l2" style="fill:black;stroke:black;"> </line>
<line x1="230" x2="230" y1="69" y2="75" id="t$x" style="fill:black;stroke:black;"> </line>
<text x="225" y="67" id="c230" style="font-family:Arial; font-size:large"> <tspan>0 </tspan>
</text>
<line x1="137" x2="137" y1="69" y2="75" id="t$x" style="fill:black;stroke:black;"> </line>
<text x="132" y="67" id="c137" style="font-family:Arial; font-size:large"> <tspan>5 </tspan>
</text>
<line x1="44" x2="44" y1="69" y2="75" id="t$x" style="fill:black;stroke:black;"> </line>
<text x="39" y="67" id="c44" style="font-family:Arial; font-size:large"> <tspan>10 </tspan>
</text>
<line x1="450" x2="450" y1="69" y2="75" id="p$x" style="fill:black;stroke:black;"> </line>
<text x="445" y="67" id="d450" style="font-family:Arial; font-size:large"> <tspan>0 </tspan>
</text>
<line x1="482" x2="482" y1="69" y2="75" id="p$x" style="fill:black;stroke:black;"> </line>
<text x="477" y="67" id="d482" style="font-family:Arial; font-size:large"> <tspan>10 </tspan>
</text>
<line x1="514" x2="514" y1="69" y2="75" id="p$x" style="fill:black;stroke:black;"> </line>
<text x="509" y="67" id="d514" style="font-family:Arial; font-size:large"> <tspan>20 </tspan>
</text>
<line x1="546" x2="546" y1="69" y2="75" id="p$x" style="fill:black;stroke:black;"> </line>
<text x="541" y="67" id="d546" style="font-family:Arial; font-size:large"> <tspan>30 </tspan>
</text>
<line x1="578" x2="578" y1="69" y2="75" id="p$x" style="fill:black;stroke:black;"> </line>
<text x="573" y="67" id="d578" style="font-family:Arial; font-size:large"> <tspan>40 </tspan>
</text>
<line x1="610" x2="610" y1="69" y2="75" id="p$x" style="fill:black;stroke:black;"> </line>
<text x="605" y="67" id="d610" style="font-family:Arial; font-size:large"> <tspan>50 </tspan>
</text>
<line x1="642" x2="642" y1="69" y2="75" id="p$x" style="fill:black;stroke:black;"> </line>
<text x="637" y="67" id="d642" style="font-family:Arial; font-size:large"> <tspan>60 </tspan>
</text>
<text x="250" y="99" id="c0" style="font-family:Arial; font-size:large"> <tspan>China </tspan>
</text>
<rect x="30" y="85" width="200" height="8" id="t0" style="fill:blue;stroke:gray;"> </rect>
<rect x="55.677965246645" y="93" width="174.32203475335" height="8" id="t0" style="fill:#000099;stroke:gray;"> </rect>
<rect x="450" y="85" width="25.398150526586" height="8" id="pc0" style="fill:blue;stroke:gray;"> </rect>
<rect x="450" y="93" width="22.135884921654" height="8" id="pc0" style="fill:#000099;stroke:gray;"> </rect>
<text x="250" y="119" id="c1" style="font-family:Arial; font-size:large"> <tspan>United States </tspan>
</text>
<rect x="121.00123165921" y="105" width="108.99876834079" height="8" id="t1" style="fill:blue;stroke:gray;"> </rect>
<rect x="134.10385659254" y="113" width="95.89614340746" height="8" id="t1" style="fill:#000099;stroke:gray;"> </rect>
<rect x="450" y="105" width="59.565245312099" height="8" id="pc1" style="fill:blue;stroke:gray;"> </rect>
<rect x="450" y="113" width="52.404957616234" height="8" id="pc1" style="fill:#000099;stroke:gray;"> </rect>
<text x="250" y="139" id="c2" style="font-family:Arial; font-size:large"> <tspan>European Union (28) </tspan>
</text>
<rect x="152.8279705638" y="125" width="77.1720294362" height="8" id="t2" style="fill:blue;stroke:gray;"> </rect>
<rect x="162.41451048309" y="133" width="67.585489516914" height="8" id="t2" style="fill:#000099;stroke:gray;"> </rect>
<rect x="450" y="125" width="26.403159517082" height="8" id="pc2" style="fill:blue;stroke:gray;"> </rect>
<rect x="450" y="133" width="23.121628564089" height="8" id="pc2" style="fill:#000099;stroke:gray;"> </rect>
<text x="250" y="159" id="c3" style="font-family:Arial; font-size:large"> <tspan>India </tspan>
</text>
<rect x="175.95644972684" y="145" width="54.043550273165" height="8" id="t3" style="fill:blue;stroke:gray;"> </rect>
<rect x="191.1545276219" y="153" width="38.8454723781" height="8" id="t3" style="fill:#000099;stroke:gray;"> </rect>
<rect x="450" y="145" width="7.4942203955818" height="8" id="pc3" style="fill:blue;stroke:gray;"> </rect>
<rect x="450" y="153" width="5.3878756742872" height="8" id="pc3" style="fill:#000099;stroke:gray;"> </rect>
<text x="250" y="179" id="c4" style="font-family:Arial; font-size:large"> <tspan>Russian Federation </tspan>
</text>
<rect x="187.79834846437" y="165" width="42.20165153563" height="8" id="t4" style="fill:blue;stroke:gray;"> </rect>
<rect x="197.77440245753" y="173" width="32.22559754247" height="8" id="t4" style="fill:#000099;stroke:gray;"> </rect>
<rect x="450" y="165" width="50.555484202415" height="8" id="pc4" style="fill:blue;stroke:gray;"> </rect>
<rect x="450" y="173" width="38.604546622142" height="8" id="pc4" style="fill:#000099;stroke:gray;"> </rect>
<text x="250" y="199" id="c5" style="font-family:Arial; font-size:large"> <tspan>Indonesia </tspan>
</text>
<rect x="192.91744364102" y="185" width="37.08255635898" height="8" id="t5" style="fill:blue;stroke:gray;"> </rect>
<rect x="221.46314176933" y="193" width="8.5368582306656" height="8" id="t5" style="fill:#000099;stroke:gray;"> </rect>
<rect x="450" y="185" width="25.764192139738" height="8" id="pc5" style="fill:blue;stroke:gray;"> </rect>
<rect x="450" y="193" width="5.930516311328" height="8" id="pc5" style="fill:#000099;stroke:gray;"> </rect>
<text x="250" y="219" id="c6" style="font-family:Arial; font-size:large"> <tspan>Brazil </tspan>
</text>
<rect x="195.87234378381" y="205" width="34.127656216186" height="8" id="t6" style="fill:blue;stroke:gray;"> </rect>
<rect x="221.05658397445" y="213" width="8.9434160255491" height="8" id="t6" style="fill:#000099;stroke:gray;"> </rect>
<rect x="450" y="205" width="29.466349858721" height="8" id="pc6" style="fill:blue;stroke:gray;"> </rect>
<rect x="450" y="213" width="7.7221936809658" height="8" id="pc6" style="fill:#000099;stroke:gray;"> </rect>
<text x="250" y="239" id="c7" style="font-family:Arial; font-size:large"> <tspan>Japan </tspan>
</text>
<rect x="207.4004546078" y="225" width="22.599545392202" height="8" id="t7" style="fill:blue;stroke:gray;"> </rect>
<rect x="206.61587438136" y="233" width="23.384125618644" height="8" id="t7" style="fill:#000099;stroke:gray;"> </rect>
<rect x="450" y="225" width="30.387875674287" height="8" id="pc7" style="fill:blue;stroke:gray;"> </rect>
<rect x="450" y="233" width="31.444258926278" height="8" id="pc7" style="fill:#000099;stroke:gray;"> </rect>
<text x="250" y="259" id="c8" style="font-family:Arial; font-size:large"> <tspan>Canada </tspan>
</text>
<rect x="213.9712723543" y="245" width="16.0287276457" height="8" id="t8" style="fill:blue;stroke:gray;"> </rect>
<rect x="219.83508735155" y="253" width="10.16491264845" height="8" id="t8" style="fill:#000099;stroke:gray;"> </rect>
<rect x="450" y="245" width="79.113151810943" height="8" id="pc8" style="fill:blue;stroke:gray;"> </rect>
<rect x="450" y="253" width="50.170177241202" height="8" id="pc8" style="fill:#000099;stroke:gray;"> </rect>
<text x="250" y="279" id="c9" style="font-family:Arial; font-size:large"> <tspan>Germany </tspan>
</text>
<rect x="214.83286848558" y="265" width="15.167131514424" height="8" id="t9" style="fill:blue;stroke:gray;"> </rect>
<rect x="215.51221005247" y="273" width="14.487789947529" height="8" id="t9" style="fill:#000099;stroke:gray;"> </rect>
<rect x="450" y="265" width="32.346519393784" height="8" id="pc9" style="fill:blue;stroke:gray;"> </rect>
<rect x="450" y="273" width="30.898407397894" height="8" id="pc9" style="fill:#000099;stroke:gray;"> </rect>
<text x="250" y="299" id="c10" style="font-family:Arial; font-size:large"> <tspan>Mexico </tspan>
</text>
<rect x="215.98106119692" y="285" width="14.018938803083" height="8" id="t10" style="fill:blue;stroke:gray;"> </rect>
<rect x="221.38027240864" y="293" width="8.6197275913583" height="8" id="t10" style="fill:#000099;stroke:gray;"> </rect>
<rect x="450" y="285" width="19.897893655279" height="8" id="pc10" style="fill:blue;stroke:gray;"> </rect>
<rect x="450" y="293" width="12.233496018495" height="8" id="pc10" style="fill:#000099;stroke:gray;"> </rect>
<text x="250" y="319" id="c11" style="font-family:Arial; font-size:large"> <tspan>Iran </tspan>
</text>
<rect x="216.67423990667" y="305" width="13.325760093332" height="8" id="t11" style="fill:blue;stroke:gray;"> </rect>
<rect x="218.88424614143" y="313" width="11.115753858568" height="8" id="t11" style="fill:#000099;stroke:gray;"> </rect>
<rect x="450" y="305" width="29.906241972772" height="8" id="pc11" style="fill:blue;stroke:gray;"> </rect>
<rect x="450" y="313" width="24.948625738505" height="8" id="pc11" style="fill:#000099;stroke:gray;"> </rect>
<text x="250" y="339" id="c12" style="font-family:Arial; font-size:large"> <tspan>Australia </tspan>
</text>
<rect x="217.17644096144" y="325" width="12.82355903856" height="8" id="t12" style="fill:blue;stroke:gray;"> </rect>
<rect x="222.67564013118" y="333" width="7.3243598688189" height="8" id="t12" style="fill:#000099;stroke:gray;"> </rect>
<rect x="450" y="325" width="96.776265091189" height="8" id="pc12" style="fill:blue;stroke:gray;"> </rect>
<rect x="450" y="333" width="55.275494477267" height="8" id="pc12" style="fill:#000099;stroke:gray;"> </rect>
<text x="250" y="359" id="c13" style="font-family:Arial; font-size:large"> <tspan>Korea, Rep. (South) </tspan>
</text>
<rect x="217.61939800454" y="345" width="12.380601995458" height="8" id="t13" style="fill:blue;stroke:gray;"> </rect>
<rect x="218.44580226816" y="353" width="11.554197731835" height="8" id="t13" style="fill:#000099;stroke:gray;"> </rect>
<rect x="450" y="345" width="42.467248908297" height="8" id="pc13" style="fill:blue;stroke:gray;"> </rect>
<rect x="450" y="353" width="39.632031852042" height="8" id="pc13" style="fill:#000099;stroke:gray;"> </rect>
<text x="250" y="379" id="c14" style="font-family:Arial; font-size:large"> <tspan>United Kingdom </tspan>
</text>
<rect x="219.6920717196" y="365" width="10.307928280396" height="8" id="t14" style="fill:blue;stroke:gray;"> </rect>
<rect x="221.3245382242" y="373" width="8.6754617758007" height="8" id="t14" style="fill:#000099;stroke:gray;"> </rect>
<rect x="450" y="365" width="27.754944772669" height="8" id="pc14" style="fill:blue;stroke:gray;"> </rect>
<rect x="450" y="373" width="23.359234523504" height="8" id="pc14" style="fill:#000099;stroke:gray;"> </rect>
<text x="250" y="399" id="c15" style="font-family:Arial; font-size:large"> <tspan>Saudi Arabia </tspan>
</text>
<rect x="220.13566333947" y="385" width="9.864336660531" height="8" id="t15" style="fill:blue;stroke:gray;"> </rect>
<rect x="221.01057809513" y="393" width="8.9894219048748" height="8" id="t15" style="fill:#000099;stroke:gray;"> </rect>
<rect x="450" y="385" width="59.812483945543" height="8" id="pc15" style="fill:blue;stroke:gray;"> </rect>
<rect x="450" y="393" width="54.508091446185" height="8" id="pc15" style="fill:#000099;stroke:gray;"> </rect>
<text x="250" y="419" id="c16" style="font-family:Arial; font-size:large"> <tspan>Nigeria </tspan>
</text>
<rect x="221.11112949741" y="405" width="8.888870502594" height="8" id="t16" style="fill:blue;stroke:gray;"> </rect>
<rect x="228.23707087753" y="413" width="1.7629291224741" height="8" id="t16" style="fill:#000099;stroke:gray;"> </rect>
<rect x="450" y="405" width="9.0290264577447" height="8" id="pc16" style="fill:blue;stroke:gray;"> </rect>
<rect x="450" y="413" width="1.7884664782944" height="8" id="pc16" style="fill:#000099;stroke:gray;"> </rect>
<text x="250" y="439" id="c17" style="font-family:Arial; font-size:large"> <tspan>South Africa </tspan>
</text>
<rect x="221.31901422412" y="425" width="8.6809857758776" height="8" id="t17" style="fill:blue;stroke:gray;"> </rect>
<rect x="222.83405782095" y="433" width="7.1659421790501" height="8" id="t17" style="fill:#000099;stroke:gray;"> </rect>
<rect x="450" y="425" width="28.448497302851" height="8" id="pc17" style="fill:blue;stroke:gray;"> </rect>
<rect x="450" y="433" width="23.481248394554" height="8" id="pc17" style="fill:#000099;stroke:gray;"> </rect>
<text x="250" y="459" id="c18" style="font-family:Arial; font-size:large"> <tspan>Malaysia </tspan>
</text>
<rect x="221.88837933269" y="445" width="8.1116206673078" height="8" id="t18" style="fill:blue;stroke:gray;"> </rect>
<rect x="226.10908415729" y="453" width="3.8909158427105" height="8" id="t18" style="fill:#000099;stroke:gray;"> </rect>
<rect x="450" y="445" width="47.582198818392" height="8" id="pc18" style="fill:blue;stroke:gray;"> </rect>
<rect x="450" y="453" width="22.82301566915" height="8" id="pc18" style="fill:#000099;stroke:gray;"> </rect>
<text x="250" y="479" id="c19" style="font-family:Arial; font-size:large"> <tspan>France </tspan>
</text>
<rect x="221.9059471879" y="465" width="8.0940528120988" height="8" id="t19" style="fill:blue;stroke:gray;"> </rect>
<rect x="223.56556384401" y="473" width="6.4344361559901" height="8" id="t19" style="fill:#000099;stroke:gray;"> </rect>
<rect x="450" y="465" width="21.146930387876" height="8" id="pc19" style="fill:blue;stroke:gray;"> </rect>
<rect x="450" y="473" width="16.809016182892" height="8" id="pc19" style="fill:#000099;stroke:gray;"> </rect>
<text x="250" y="499" id="c20" style="font-family:Arial; font-size:large"> <tspan>Italy </tspan>
</text>
<rect x="221.91775143883" y="485" width="8.0822485611721" height="8" id="t20" style="fill:blue;stroke:gray;"> </rect>
<rect x="222.66973613381" y="493" width="7.3302638661902" height="8" id="t20" style="fill:#000099;stroke:gray;"> </rect>
<rect x="450" y="485" width="23.282173131261" height="8" id="pc20" style="fill:blue;stroke:gray;"> </rect>
<rect x="450" y="493" width="21.118032365785" height="8" id="pc20" style="fill:#000099;stroke:gray;"> </rect>
<text x="250" y="519" id="c21" style="font-family:Arial; font-size:large"> <tspan>Argentina </tspan>
</text>
<rect x="222.41812176772" y="505" width="7.5818782322818" height="8" id="t21" style="fill:blue;stroke:gray;"> </rect>
<rect x="226.33555505709" y="513" width="3.6644449429127" height="8" id="t21" style="fill:#000099;stroke:gray;"> </rect>
<rect x="450" y="505" width="31.649755972258" height="8" id="pc21" style="fill:blue;stroke:gray;"> </rect>
<rect x="450" y="513" width="15.296686360134" height="8" id="pc21" style="fill:#000099;stroke:gray;"> </rect>
<text x="250" y="539" id="c22" style="font-family:Arial; font-size:large"> <tspan>Venezuela </tspan>
</text>
<rect x="222.57343770617" y="525" width="7.4265622938269" height="8" id="t22" style="fill:blue;stroke:gray;"> </rect>
<rect x="226.12413991216" y="533" width="3.8758600878415" height="8" id="t22" style="fill:#000099;stroke:gray;"> </rect>
<rect x="450" y="525" width="42.525044952479" height="8" id="pc22" style="fill:blue;stroke:gray;"> </rect>
<rect x="450" y="533" width="22.193680965836" height="8" id="pc22" style="fill:#000099;stroke:gray;"> </rect>
<text x="250" y="559" id="c23" style="font-family:Arial; font-size:large"> <tspan>Turkey </tspan>
</text>
<rect x="222.68337111062" y="545" width="7.3166288893823" height="8" id="t23" style="fill:blue;stroke:gray;"> </rect>
<rect x="223.78003955828" y="553" width="6.2199604417201" height="8" id="t23" style="fill:#000099;stroke:gray;"> </rect>
<rect x="450" y="545" width="16.959928076034" height="8" id="pc23" style="fill:blue;stroke:gray;"> </rect>
<rect x="450" y="553" width="14.416902132032" height="8" id="pc23" style="fill:#000099;stroke:gray;"> </rect>
<text x="250" y="579" id="c24" style="font-family:Arial; font-size:large"> <tspan>Thailand </tspan>
</text>
<rect x="222.96710741548" y="565" width="7.0328925845175" height="8" id="t24" style="fill:blue;stroke:gray;"> </rect>
<rect x="224.88796004405" y="573" width="5.112039955948" height="8" id="t24" style="fill:#000099;stroke:gray;"> </rect>
<rect x="450" y="565" width="18.061263806833" height="8" id="pc24" style="fill:blue;stroke:gray;"> </rect>
<rect x="450" y="573" width="13.129334703314" height="8" id="pc24" style="fill:#000099;stroke:gray;"> </rect>
<text x="250" y="599" id="c25" style="font-family:Arial; font-size:large"> <tspan>Ukraine </tspan>
</text>
<rect x="223.14301995605" y="585" width="6.856980043946" height="8" id="t25" style="fill:blue;stroke:gray;"> </rect>
<rect x="224.64055934254" y="593" width="5.3594406574605" height="8" id="t25" style="fill:#000099;stroke:gray;"> </rect>
<rect x="450" y="585" width="25.796301053172" height="8" id="pc25" style="fill:blue;stroke:gray;"> </rect>
<rect x="450" y="593" width="20.161186745441" height="8" id="pc25" style="fill:#000099;stroke:gray;"> </rect>
<text x="250" y="619" id="c26" style="font-family:Arial; font-size:large"> <tspan>Pakistan </tspan>
</text>
<rect x="223.60470918105" y="605" width="6.395290818949" height="8" id="t26" style="fill:blue;stroke:gray;"> </rect>
<rect x="227.15141860758" y="613" width="2.848581392416" height="8" id="t26" style="fill:#000099;stroke:gray;"> </rect>
<rect x="450" y="605" width="6.1199589005908" height="8" id="pc26" style="fill:blue;stroke:gray;"> </rect>
<rect x="450" y="613" width="2.726046750578" height="8" id="pc26" style="fill:#000099;stroke:gray;"> </rect>
<text x="250" y="639" id="c27" style="font-family:Arial; font-size:large"> <tspan>Spain </tspan>
</text>
<rect x="223.9446663664" y="625" width="6.0553336335998" height="8" id="t27" style="fill:blue;stroke:gray;"> </rect>
<rect x="224.84250450564" y="633" width="5.1574954943646" height="8" id="t27" style="fill:#000099;stroke:gray;"> </rect>
<rect x="450" y="625" width="22.20652453121" height="8" id="pc27" style="fill:blue;stroke:gray;"> </rect>
<rect x="450" y="633" width="18.912150012844" height="8" id="pc27" style="fill:#000099;stroke:gray;"> </rect>
<text x="250" y="659" id="c28" style="font-family:Arial; font-size:large"> <tspan>Poland </tspan>
</text>
<rect x="223.9712175074" y="645" width="6.0287824925999" height="8" id="t28" style="fill:blue;stroke:gray;"> </rect>
<rect x="224.33014086313" y="653" width="5.6698591368749" height="8" id="t28" style="fill:#000099;stroke:gray;"> </rect>
<rect x="450" y="645" width="26.833418957102" height="8" id="pc28" style="fill:blue;stroke:gray;"> </rect>
<rect x="450" y="653" width="25.237605959414" height="8" id="pc28" style="fill:#000099;stroke:gray;"> </rect>
<text x="250" y="679" id="c29" style="font-family:Arial; font-size:large"> <tspan>Kazakhstan </tspan>
</text>
<rect x="224.54515381495" y="665" width="5.4548461850509" height="8" id="t29" style="fill:blue;stroke:gray;"> </rect>
<rect x="225.61269163259" y="673" width="4.3873083674113" height="8" id="t29" style="fill:#000099;stroke:gray;"> </rect>
<rect x="450" y="665" width="55.721808374005" height="8" id="pc29" style="fill:blue;stroke:gray;"> </rect>
<rect x="450" y="673" width="44.817621371693" height="8" id="pc29" style="fill:#000099;stroke:gray;"> </rect>
<text x="250" y="699" id="c30" style="font-family:Arial; font-size:large"> <tspan>Egypt </tspan>
</text>
<rect x="224.60940330822" y="685" width="5.390596691781" height="8" id="t30" style="fill:blue;stroke:gray;"> </rect>
<rect x="225.88973025115" y="693" width="4.1102697488478" height="8" id="t30" style="fill:#000099;stroke:gray;"> </rect>
<rect x="450" y="685" width="11.45324942204" height="8" id="pc30" style="fill:blue;stroke:gray;"> </rect>
<rect x="450" y="693" width="8.7336244541485" height="8" id="pc30" style="fill:#000099;stroke:gray;"> </rect>
<text x="250" y="719" id="c31" style="font-family:Arial; font-size:large"> <tspan>Iraq </tspan>
</text>
<rect x="225.19971506567" y="705" width="4.8002849343259" height="8" id="t31" style="fill:blue;stroke:gray;"> </rect>
<rect x="227.37524450158" y="713" width="2.6247554984158" height="8" id="t31" style="fill:#000099;stroke:gray;"> </rect>
<rect x="450" y="705" width="25.272925764192" height="8" id="pc31" style="fill:blue;stroke:gray;"> </rect>
<rect x="450" y="713" width="13.819676342153" height="8" id="pc31" style="fill:#000099;stroke:gray;"> </rect>
<text x="250" y="739" id="c32" style="font-family:Arial; font-size:large"> <tspan>Vietnam </tspan>
</text>
<rect x="225.29809131103" y="725" width="4.7019086889713" height="8" id="t32" style="fill:blue;stroke:gray;"> </rect>
<rect x="226.76066907453" y="733" width="3.2393309254733" height="8" id="t32" style="fill:#000099;stroke:gray;"> </rect>
<rect x="450" y="725" width="9.0836116105831" height="8" id="pc32" style="fill:blue;stroke:gray;"> </rect>
<rect x="450" y="733" width="6.2580272283586" height="8" id="pc32" style="fill:#000099;stroke:gray;"> </rect>
<text x="250" y="759" id="c33" style="font-family:Arial; font-size:large"> <tspan>Uzbekistan </tspan>
</text>
<rect x="225.54902055885" y="745" width="4.4509794411543" height="8" id="t33" style="fill:blue;stroke:gray;"> </rect>
<rect x="227.82775763428" y="753" width="2.1722423657186" height="8" id="t33" style="fill:#000099;stroke:gray;"> </rect>
<rect x="450" y="745" width="25.638967377344" height="8" id="pc33" style="fill:blue;stroke:gray;"> </rect>
<rect x="450" y="753" width="12.512843565374" height="8" id="pc33" style="fill:#000099;stroke:gray;"> </rect>
<text x="250" y="779" id="c34" style="font-family:Arial; font-size:large"> <tspan>United Arab Emirates </tspan>
</text>
<rect x="225.95587973089" y="765" width="4.0441202691062" height="8" id="t34" style="fill:blue;stroke:gray;"> </rect>
<rect x="226.6062666271" y="773" width="3.3937333728955" height="8" id="t34" style="fill:#000099;stroke:gray;"> </rect>
<rect x="450" y="765" width="75.353198047778" height="8" id="pc34" style="fill:blue;stroke:gray;"> </rect>
<rect x="450" y="773" width="63.235294117647" height="8" id="pc34" style="fill:#000099;stroke:gray;"> </rect>
<text x="250" y="799" id="c35" style="font-family:Arial; font-size:large"> <tspan>Netherlands </tspan>
</text>
<rect x="226.11523150268" y="785" width="3.8847684973183" height="8" id="t35" style="fill:blue;stroke:gray;"> </rect>
<rect x="226.7203837456" y="793" width="3.2796162543974" height="8" id="t35" style="fill:#000099;stroke:gray;"> </rect>
<rect x="450" y="785" width="39.77010017981" height="8" id="pc35" style="fill:blue;stroke:gray;"> </rect>
<rect x="450" y="793" width="33.573079886977" height="8" id="pc35" style="fill:#000099;stroke:gray;"> </rect>
<text x="250" y="819" id="c36" style="font-family:Arial; font-size:large"> <tspan>Kuwait </tspan>
</text>
<rect x="226.20995004009" y="805" width="3.7900499599103" height="8" id="t36" style="fill:blue;stroke:gray;"> </rect>
<rect x="228.26350596024" y="813" width="1.7364940397612" height="8" id="t36" style="fill:#000099;stroke:gray;"> </rect>
<rect x="450" y="805" width="200" height="8" id="pc36" style="fill:blue;stroke:gray;"> </rect>
<rect x="450" y="813" width="91.635628050347" height="8" id="pc36" style="fill:#000099;stroke:gray;"> </rect>
<text x="250" y="839" id="c37" style="font-family:Arial; font-size:large"> <tspan>Congo, Dem. Rep. </tspan>
</text>
<rect x="226.22754971773" y="825" width="3.7724502822678" height="8" id="t37" style="fill:blue;stroke:gray;"> </rect>
<rect x="229.95469982994" y="833" width="0.0453001700647" height="8" id="t37" style="fill:#000099;stroke:gray;"> </rect>
<rect x="450" y="825" width="9.8478037503211" height="8" id="pc37" style="fill:blue;stroke:gray;"> </rect>
<rect x="450" y="833" width="0.11559208836373" height="8" id="pc37" style="fill:#000099;stroke:gray;"> </rect>
<text x="250" y="859" id="c38" style="font-family:Arial; font-size:large"> <tspan>Angola </tspan>
</text>
<rect x="226.26139006792" y="845" width="3.7386099320847" height="8" id="t38" style="fill:blue;stroke:gray;"> </rect>
<rect x="229.45089080632" y="853" width="0.54910919368262" height="8" id="t38" style="fill:#000099;stroke:gray;"> </rect>
<rect x="450" y="845" width="30.798869766247" height="8" id="pc38" style="fill:blue;stroke:gray;"> </rect>
<rect x="450" y="853" width="4.5209350115592" height="8" id="pc38" style="fill:#000099;stroke:gray;"> </rect>
<text x="250" y="879" id="c39" style="font-family:Arial; font-size:large"> <tspan>Colombia </tspan>
</text>
<rect x="226.26215755014" y="865" width="3.7378424498646" height="8" id="t39" style="fill:blue;stroke:gray;"> </rect>
<rect x="228.61549015355" y="873" width="1.3845098464506" height="8" id="t39" style="fill:#000099;stroke:gray;"> </rect>
<rect x="450" y="865" width="13.437580272284" height="8" id="pc39" style="fill:blue;stroke:gray;"> </rect>
<rect x="450" y="873" width="4.9768815823273" height="8" id="pc39" style="fill:#000099;stroke:gray;"> </rect>
</svg>